<svg xmlns="http://www.w3.org/2000/svg" xmlns:xlink="http://www.w3.org/1999/xlink" version="1.1" x="0px" y="0px" viewBox="0 0 100 125" enable-background="new 0 0 100 100" xml:space="preserve"><g><path d="M11.6,45.1c0.5,1.6,1.3,4.7,3.2,6.5c1.4,5.4,5.7,11.7,12.5,14.1c1.6,0.6,3.3,0.9,5.1,0.9c1.8,0,3.5-0.3,5.1-0.9   c6.8-2.5,11.1-8.7,12.5-14.1c1.9-1.8,2.8-4.9,3.2-6.5c0.7-2.6,1.5-6.3-0.5-8.9c-0.1-0.1-0.2-0.2-0.2-0.3c1.1-6.8,0.3-11.9-2.3-15.3   c-1.2-1.6-2.6-2.4-3.8-2.9c-0.9-1.1-2.4-2.6-4.6-3.9c-2.7-1.6-5.7-2.4-9-2.4c-0.6,0-1.1,0-1.7,0.1c-1.5,0.1-3,0.4-4.4,0.8   c0,0,0,0,0,0c-1.6,0.5-3.1,1.3-4.6,2.4c-1.7,1.1-3.2,2.3-4.5,3.7c-2.6,2.7-4.3,5.7-5.1,9.1c-0.6,2.5-0.7,5.1-0.1,8.3   c-0.1,0.1-0.2,0.2-0.2,0.3C10.1,38.8,10.9,42.5,11.6,45.1z M16.5,37.9c0.1,0,0.2,0,0.3,0v0c0,0,1.2-15.8,13.9-10.3   c6.7,2.8,11.6,2.7,14.8,1.9c4,2.8,2.9,7.5,2.6,8.2c0,0,0,0.1,0,0.1c0.1,0,0.2,0,0.3,0c1.3,0,2.7,1,1.2,6.1c-1.1,4-2.2,5.1-3,5.2   c-0.7,4.7-4.5,10.7-10.4,12.8c-1.2,0.4-2.5,0.7-3.8,0.7c-1.3,0-2.6-0.2-3.8-0.6c-6-2.1-9.6-8.1-10.4-12.9c-0.8-0.1-1.8-1.2-3-5.2   C13.9,39,15.2,37.9,16.5,37.9z"/><path d="M48.7,62.2c-2.4,2.9-5.7,5.5-9.9,7c-2,0.7-4.2,1.1-6.4,1.1c-2.2,0-4.3-0.4-6.3-1.1c-4.2-1.5-7.5-4.1-9.9-7.1   c-3.5,1.9-9.5,5.3-15.8,9.9C7.5,82,19.2,88.5,32.5,88.5S57.4,82,64.6,72.1C58.3,67.4,52.2,64,48.7,62.2L48.7,62.2z"/><path d="M93.9,27.6H63c-3.2,0-5.7,2.6-5.7,5.7v23.3c0,3.2,2.6,5.7,5.7,5.7h5.8v8.4c0,0.4,0.4,0.6,0.7,0.3l8.6-8.6c0,0,0,0,0-0.1   h15.7c3.2,0,5.7-2.6,5.7-5.7V33.3C99.7,30.1,97.1,27.6,93.9,27.6z M68.4,55.5h-4.7v-5h4.7V55.5z M76.7,55.5H72V39.8h4.7V55.5z    M85,55.5h-4.7V44.7H85V55.5z M93.3,55.5h-4.7V33.9h4.7V55.5z"/></g><text x="0" y="115" fill="#000000" font-size="5px" font-weight="bold" font-family="'Helvetica Neue', Helvetica, Arial-Unicode, Arial, Sans-serif">Created by Gregor Cresnar</text><text x="0" y="120" fill="#000000" font-size="5px" font-weight="bold" font-family="'Helvetica Neue', Helvetica, Arial-Unicode, Arial, Sans-serif">from the Noun Project</text></svg>