<svg xmlns="http://www.w3.org/2000/svg" xmlns:xlink="http://www.w3.org/1999/xlink" version="1.1" x="0px" y="0px" viewBox="0 0 512 640" enable-background="new 0 0 512 512" xml:space="preserve"><g><path d="M465.016,329.161c1.957-2.503,3.492-4.65,3.939-7.582l0.232-1.512l-0.232-1.512c-0.447-2.932-1.982-5.079-3.939-7.582   c-0.713-0.91-1.6-2.044-1.791-2.636c-0.221-0.679-0.176-2.12-0.137-3.394c0.084-2.705,0.08-4.944-0.77-7.189l-0.943-2.49   l-2.055-1.691c-1.912-1.572-4.094-2.284-6.748-3.051c-1.213-0.352-2.582-0.747-3.139-1.151c-0.531-0.388-1.352-1.604-2.012-2.583   c-1.566-2.325-2.936-4.211-5.076-5.557l-2.078-1.307l-2.447-0.195l-0.398-0.032l-0.418-0.001c-2.186,0-4.156,0.646-6.506,1.492   c-1.283,0.462-2.605,0.938-3.367,0.938c-0.76,0-2.141-0.497-3.359-0.936c-2.359-0.848-4.328-1.494-6.512-1.494h-0.398l-0.418,0.033   l-2.447,0.195l-2.078,1.307c-2.141,1.346-3.51,3.231-5.076,5.558c-0.66,0.979-1.482,2.195-2.016,2.583   c-0.553,0.402-1.922,0.799-3.131,1.148c-2.658,0.768-4.84,1.48-6.752,3.053l-2.053,1.69l-0.943,2.487   c-0.852,2.246-0.855,4.487-0.771,7.183c0.039,1.284,0.084,2.726-0.137,3.407c-0.191,0.589-1.078,1.723-1.791,2.634   c-1.686,2.155-3.594,4.595-3.988,7.936l-0.145,1.216l0.154,1.215c0.412,3.268,2.227,5.583,3.982,7.823   c0.709,0.907,1.596,2.042,1.789,2.633c0.219,0.679,0.174,2.121,0.135,3.394c-0.084,2.707-0.08,4.947,0.771,7.193l0.943,2.487   l2.053,1.69c1.393,1.146,2.93,1.832,4.688,2.419v80.04l27.502-33.663l27.498,33.665v-80.041c1.758-0.586,3.297-1.273,4.689-2.419   l2.057-1.692l0.941-2.491c0.85-2.245,0.854-4.483,0.77-7.177c-0.039-1.284-0.084-2.727,0.137-3.407   C463.416,331.206,464.303,330.071,465.016,329.161z M427.133,379.551l-17.502,21.423v-43.975c0.684,0.722,1.426,1.364,2.299,1.912   l2.436,1.527h2.875c2.203,0,4.172-0.646,6.516-1.488c1.295-0.466,2.617-0.941,3.375-0.941c0.76,0,2.082,0.476,3.361,0.936   c2.541,0.915,4.389,1.451,6.326,1.491l2.992,0.062l2.535-1.594c0.867-0.545,1.605-1.184,2.285-1.9v43.969L427.133,379.551z    M457.141,322.997c-1.26,1.611-2.689,3.438-3.428,5.709c-0.76,2.34-0.686,4.709-0.619,6.798c0.031,1.046,0.086,2.771-0.129,3.337   c-0.469,0.386-2.15,0.872-3.17,1.166c-2,0.578-4.268,1.233-6.242,2.671c-1.957,1.424-3.268,3.366-4.424,5.079   c-0.598,0.889-1.586,2.354-2.105,2.682c-0.619-0.013-2.184-0.557-3.143-0.902c-1.99-0.716-4.246-1.527-6.75-1.527   s-4.758,0.812-6.748,1.527c-0.949,0.342-2.506,0.902-3.123,0.902c-0.006,0-0.014,0-0.02,0c-0.52-0.326-1.508-1.793-2.107-2.682   c-1.156-1.713-2.465-3.655-4.42-5.079c-1.977-1.438-4.244-2.093-6.244-2.671c-1.02-0.295-2.701-0.781-3.17-1.166   c-0.215-0.564-0.16-2.291-0.129-3.337c0.066-2.089,0.141-4.458-0.619-6.798c-0.738-2.271-2.168-4.098-3.428-5.709   c-0.699-0.893-1.867-2.387-1.934-2.912c0.066-0.561,1.236-2.055,1.934-2.947c1.26-1.611,2.689-3.438,3.428-5.709   c0.76-2.34,0.686-4.708,0.619-6.797c-0.031-1.046-0.086-2.773,0.129-3.338c0.469-0.385,2.15-0.871,3.17-1.166   c2-0.578,4.268-1.232,6.244-2.672c1.955-1.423,3.264-3.364,4.42-5.078c0.6-0.888,1.588-2.354,2.107-2.681   c0.006-0.001,0.014-0.001,0.02-0.001c0.615,0,2.174,0.561,3.123,0.902c1.988,0.717,4.244,1.527,6.748,1.527s4.76-0.811,6.75-1.527   c0.949-0.342,2.508-0.902,3.123-0.902c0.006,0,0.014,0,0.02,0.001c0.52,0.327,1.508,1.793,2.107,2.681   c1.154,1.714,2.465,3.656,4.42,5.08c1.977,1.438,4.244,2.093,6.244,2.67c1.02,0.295,2.701,0.781,3.17,1.167   c0.215,0.565,0.16,2.291,0.129,3.337c-0.066,2.089-0.141,4.457,0.619,6.797c0.738,2.271,2.168,4.098,3.428,5.709   c0.691,0.883,1.842,2.355,1.93,2.93C458.982,320.642,457.832,322.114,457.141,322.997z"/><path d="M235.608,56.956h-53.827V84.23h53.827V56.956z M225.608,74.23h-33.827v-7.274h33.827V74.23z"/><rect x="45.163" y="56.956" width="55.087" height="10"/><rect x="84.836" y="105.544" width="40.624" height="10"/><path d="M444.012,87.967H287.49v161.35h10V97.967h139.449v47.32h47.311v230.05h-19.619v10h29.619v-247.12L444.012,87.967z    M446.939,135.287V105.04l30.24,30.247H446.939z"/><rect x="335.035" y="375.337" width="54.596" height="10"/><rect x="312.584" y="113.284" width="54.678" height="10"/><rect x="312.469" y="263.092" width="156.809" height="10"/><rect x="312.469" y="283.092" width="72.723" height="10"/><rect x="312.469" y="303.092" width="63.998" height="10"/><rect x="312.469" y="328.092" width="10" height="10"/><rect x="332.469" y="328.092" width="10" height="10"/><rect x="352.469" y="328.092" width="10" height="10"/><rect x="372.469" y="328.092" width="10" height="10"/><rect x="312.584" y="135.287" width="109.355" height="10"/><path d="M341.596,233.092v-6.317c5.58-2.036,9.301-7.542,9.129-13.688c-0.275-9.837-9.643-12.586-12.721-13.489   c-5.33-1.563-5.416-2.53-5.516-3.647c-0.205-2.304,1.184-4.34,3.23-4.738c0.113-0.021,0.225-0.039,0.328-0.052   c1.293-0.156,2.217,0.469,2.654,0.856c0.83,0.737,1.305,1.795,1.303,2.902l-0.002,0.325l10,0.03l0.002-0.326   c0.012-3.978-1.689-7.772-4.666-10.413c-1.125-0.996-2.393-1.779-3.742-2.347v-6.489h-10v6.335   c-5.857,2.197-9.656,8.183-9.068,14.803c0.697,7.819,6.791,10.634,12.66,12.356c5.469,1.604,5.508,3.028,5.541,4.173   c0.055,1.939-1.057,3.584-2.764,4.091c-0.268,0.08-0.537,0.138-0.797,0.171c-1.303,0.162-2.234-0.461-2.676-0.85   c-0.834-0.734-1.313-1.793-1.313-2.903h-10c0,3.982,1.715,7.776,4.705,10.409c1.115,0.982,2.373,1.751,3.711,2.313v6.495H341.596z"/><path d="M395.855,233.092v-6.317c5.58-2.036,9.301-7.542,9.129-13.688c-0.275-9.837-9.643-12.586-12.721-13.489   c-5.328-1.563-5.414-2.529-5.514-3.649c-0.205-2.302,1.182-4.338,3.229-4.736c0.113-0.021,0.225-0.039,0.328-0.052   c1.293-0.156,2.217,0.469,2.654,0.856c0.83,0.737,1.305,1.795,1.303,2.902l-0.002,0.325l10,0.03l0.002-0.326   c0.012-3.978-1.689-7.772-4.666-10.413c-1.125-0.996-2.393-1.779-3.742-2.347v-6.489h-10v6.335   c-5.859,2.198-9.658,8.183-9.066,14.802c0.695,7.819,6.789,10.635,12.658,12.357c5.469,1.604,5.508,3.028,5.541,4.173   c0.055,1.939-1.057,3.584-2.764,4.091c-0.268,0.08-0.537,0.138-0.797,0.171c-1.307,0.162-2.234-0.461-2.676-0.85   c-0.834-0.734-1.313-1.793-1.313-2.903h-10c0,3.982,1.715,7.776,4.705,10.409c1.115,0.982,2.375,1.751,3.711,2.313v6.495H395.855z"/><path d="M440.115,175.699v6.335c-5.857,2.197-9.658,8.183-9.066,14.802c0.695,7.82,6.789,10.635,12.658,12.357   c5.469,1.604,5.508,3.028,5.541,4.173c0.055,1.939-1.057,3.584-2.76,4.091c-0.27,0.08-0.541,0.138-0.801,0.171   c-1.305,0.162-2.234-0.461-2.676-0.85c-0.834-0.734-1.313-1.793-1.313-2.903h-10c0,3.982,1.715,7.776,4.705,10.409   c1.115,0.982,2.375,1.751,3.711,2.313v6.495h10v-6.318c5.58-2.036,9.301-7.541,9.129-13.687   c-0.275-9.836-9.643-12.586-12.721-13.489c-5.328-1.563-5.414-2.529-5.514-3.649c-0.205-2.302,1.182-4.338,3.229-4.736   c0.113-0.021,0.225-0.039,0.328-0.052c1.293-0.156,2.217,0.469,2.654,0.856c0.83,0.737,1.305,1.795,1.303,2.902l-0.002,0.325   l10,0.03l0.002-0.326c0.012-3.978-1.689-7.772-4.666-10.413c-1.123-0.995-2.393-1.779-3.742-2.346v-6.49H440.115z"/><path d="M325.564,359.117h-5.529v0.002h-13.744v-19.92H297.5v-49.97h8.791v-29.91h-36.42v-35.83v-5v-5h-0.15   c-1.91-31.28-21.57-57.85-49.01-69.71v-40.11h-28.973v-9.481h-9.957v9.481h-28.97v40.11c-27.451,11.86-47.11,38.43-49.021,69.71   h-0.15v5v5v35.83H67.231v29.91h9.27v49.97h-9.27v19.92H47.96v85.92H17.75v10h30.21h37.33h5h19.917v0.005h37.527v-0.005h19.913   v0.005h37.527v-0.005h19.913v0.005h37.537v-0.005h14.916h5h37.494v0.005h5.529v-0.005h30.205v-10h-30.205V359.117z    M162.811,113.669h47.899v26.54c-7.05-2-14.49-3.069-22.18-3.069h-3.54c-7.69,0-15.131,1.069-22.18,3.069V113.669z    M152.811,154.819c5.27-2.68,10.92-4.72,16.84-6.021c4.939-1.09,10.08-1.659,15.34-1.659h3.54c5.26,0,10.399,0.569,15.34,1.659   c5.92,1.301,11.569,3.341,16.84,6.021c21.81,11.07,37.209,33.02,38.991,58.67h-145.88C115.6,187.839,131,165.89,152.811,154.819z    M113.64,223.489h146.231v35.83h-9.91V232.82h-10v26.499h-19.101V232.82h-10v26.499h-19.102V232.82h-10v26.499h-19.101V232.82h-10   v26.499h-19.101V232.82h-10v26.499h-9.918V223.489z M77.231,269.319h26.409h166.231h26.42v9.91H77.231V269.319z M287.49,289.239   v49.96h-9.91v-49.96H287.49z M267.58,289.234v49.965h-17.86v-49.965H267.58z M239.72,289.239v49.96h-9.91v-49.96H239.72z    M219.81,289.234v49.965h-17.85v-49.965H219.81z M191.96,289.239v49.96h-9.91v-49.96H191.96z M172.05,289.234v49.965h-17.86   v-49.965H172.05z M144.19,289.239v49.96h-9.92v-49.96H144.19z M124.27,289.234v49.965h-17.85v-49.965H124.27z M96.42,289.239v49.96   H86.5v-49.96H96.42z M85.291,445.039H57.96v-75.92h9.271h18.06V445.039z M105.21,445.039h-9.92v-75.92h9.92V445.039z    M142.731,445.039H115.21v-75.92h27.521V445.039z M162.651,445.039h-9.92v-75.92h9.92V445.039z M200.17,445.039h-27.52v-75.92   h27.52V445.039z M220.09,445.039h-9.92v-75.92h9.92V445.039z M257.621,445.039H230.09v-75.92h27.531V445.039z M277.541,445.039   h-9.92v-75.92h9.92V445.039z M282.541,359.119h-5h-14.92h-5H230.09h-5h-19.92h-5h-27.52h-5h-19.92h-5H115.21h-5h-19.92h-5h-8.06   v-9.92h24.189h5h17.85h5h19.92h5h17.86h5h19.91h5h17.85h5h19.91h5h17.86h5h14.91h8.801v9.92h-8.801H282.541z M315.041,445.039   h-27.5v-64.7v-11.22h9.949h8.801h8.75V445.039z"/><rect x="287.424" y="68.485" width="103.768" height="10"/><rect x="401.191" y="68.485" width="10" height="10"/><rect x="421.191" y="68.485" width="10" height="10"/></g><text x="0" y="527" fill="#000000" font-size="5px" font-weight="bold" font-family="'Helvetica Neue', Helvetica, Arial-Unicode, Arial, Sans-serif">Created by Chanut is Industries</text><text x="0" y="532" fill="#000000" font-size="5px" font-weight="bold" font-family="'Helvetica Neue', Helvetica, Arial-Unicode, Arial, Sans-serif">from the Noun Project</text></svg>